<svg id="svg" version="1.1" viewBox="0 0 300 134.72584856396867" width="300" height="134.72584856396867" xmlns="http://www.w3.org/2000/svg"><svg xmlns="http://www.w3.org/2000/svg"><defs><clipPath id="clip-1"><rect x="0" y="0" transform="scale(0.14648,0.14644)" width="2048" height="920" fill="none"/></clipPath></defs><g clip-path="url(#clip-1)" fill="none" fill-rule="nonzero" stroke="none" stroke-width="1" stroke-linecap="butt" stroke-linejoin="miter" stroke-miterlimit="10" stroke-dasharray="" stroke-dashoffset="0" font-family="none" font-weight="none" font-size="none" text-anchor="none" style="mix-blend-mode: normal"><path d="M0,0h300v134.72585h-300z" fill="#fafcfc"/><path d="M42.99976,46.42697c-6.26499,-5.40309 -15.05464,-9.35788 -13.94897,-19.1996c4.39658,6.38469 9.79541,9.6657 16.53677,13.22334c2.821,1.48872 5.37656,2.63565 7.88086,4.62095c2.38374,1.88968 3.78032,7.26202 6.76245,7.54128c3.76787,0.17339 6.98965,-3.21687 10.98882,-2.10172c0.67661,0.18876 1.21714,1.14649 1.83105,1.4319c1.17319,0.54535 4.17891,1.21121 3.09185,3.10353c-2.19316,0.00454 -3.31802,-0.00308 -4.96641,1.792c-4.77451,5.19925 -5.89673,8.74649 -12.173,12.66672c-0.28799,0.13531 -1.24497,0.56189 -1.45811,0.70848c-0.64131,0.23826 -2.17954,0.86356 -2.76313,1.02318c-3.20449,3.36317 -5.42578,4.78204 -9.76436,6.21921c-2.17427,2.43458 -4.30781,5.10391 -7.81978,5.30263c-0.08218,0.00469 -0.1645,0.00835 -0.24683,0.01128c-0.44194,0.38778 -0.97983,1.15454 -1.36655,1.62784c-2.20195,2.69481 -4.75605,5.6043 -8.58003,5.02776c1.77729,-1.42238 4.3248,-3.68783 5.4501,-5.61397c-3.33179,2.61515 -6.14326,4.79814 -10.56841,3.56189c2.3748,-1.82597 5.45566,-3.35907 8.27974,-5.5756c-4.27148,1.93346 -7.56797,3.7218 -12.24185,1.93346c3.45894,-1.28531 6.83027,-2.93395 10.18799,-4.46909c0.87715,-0.40096 3.43608,-1.43732 4.02935,-1.8434l-0.05962,-0.20663l-0.41719,-0.11686c-2.18496,0.30855 -3.34717,0.04335 -5.25937,-1.00298c3.08276,-0.82095 8.36646,-3.00468 11.29131,-4.44581l0.3019,-0.85068c-1.33696,-2.27731 -8.57344,-2.56667 -11.12505,-3.61856c-2.36543,-0.97501 -2.75405,-1.16743 -4.85186,-2.81562c4.69863,0.91526 7.05513,0.88641 11.82363,0.77995c-7.47803,-2.36444 -16.34868,-1.43454 -20.31337,-9.894c5.13217,2.7386 9.76034,2.8969 15.32484,4.02142c-3.36284,-1.74485 -7.61426,-2.36649 -11.13853,-3.94366c-4.46597,-1.99863 -6.53443,-3.94132 -8.31146,-8.37658c3.78324,2.25329 11.43642,5.63257 15.81454,5.87273c-3.25093,-3.12022 -3.82925,-4.1869 -4.84775,-8.56036c4.16631,4.04617 8.21206,5.62554 13.52856,7.59429c-6.69155,-4.78379 -14.38257,-7.06198 -14.27168,-16.86167c2.61006,3.69339 6.27949,6.34324 10.22578,8.47265c0.60234,-0.29025 0.50156,-0.13956 0.82134,-0.648c-1.14624,-2.26691 -1.39878,-3.39231 -1.74917,-5.92296c4.43379,4.6662 8.27021,6.77905 14.07158,9.53127z" fill="#468292"/><path d="M9.40655,46.94903c3.78324,2.25329 11.43642,5.63257 15.81454,5.87273l0.58066,0.37738c1.65264,-0.10514 8.90317,2.09499 10.43906,2.97363c4.09966,2.34555 5.35474,6.20984 10.81582,4.11163c0.78179,0.80601 1.13906,1.541 1.59624,2.54573c-4.8312,6.16693 -3.91157,5.65658 -10.95645,8.81664l0.3019,-0.85068c-1.33696,-2.27731 -8.57344,-2.56667 -11.12505,-3.61856c-2.36543,-0.97501 -2.75405,-1.16743 -4.85186,-2.81562c4.69863,0.91526 7.05513,0.88641 11.82363,0.77995c-7.47803,-2.36444 -16.34868,-1.43454 -20.31337,-9.894c5.13217,2.7386 9.76034,2.8969 15.32484,4.02142c-3.36284,-1.74485 -7.61426,-2.36649 -11.13853,-3.94366c-4.46597,-1.99863 -6.53443,-3.94132 -8.31146,-8.37658z" fill="#d0dee3"/><path d="M25.80176,53.19914c1.65264,-0.10514 8.90317,2.09499 10.43906,2.97363c4.09966,2.34555 5.35474,6.20984 10.81582,4.11163c0.78179,0.80601 1.13906,1.541 1.59624,2.54573c-4.8312,6.16693 -3.91157,5.65658 -10.95645,8.81664l0.3019,-0.85068l2.89043,-3.77174c-3.29561,-6.54621 -10.64619,-4.41081 -14.87197,-11.65964c3.78867,2.36151 7.55083,3.01112 11.80913,4.12598c-4.33623,-3.04671 -8.10103,-3.25817 -12.02417,-6.29155z" fill="#94b7be"/><path d="M19.63022,34.99401c2.61006,3.69339 6.27949,6.34324 10.22578,8.47265c0.60234,-0.29025 0.50156,-0.13956 0.82134,-0.648l0.8918,1.38445c0.56309,0.68168 1.56431,1.94327 2.1769,2.51117c3.58857,3.32729 8.48892,4.76988 12.20625,7.88219c-4.26841,-1.46851 -8.28867,-2.61778 -11.96836,-5.33602c3.26631,7.13813 8.61108,6.16649 13.07271,11.02394c-5.46108,2.09821 -6.71616,-1.76608 -10.81582,-4.11163c-1.53589,-0.87865 -8.78643,-3.07878 -10.43906,-2.97363l-0.58066,-0.37738c-3.25093,-3.12022 -3.82925,-4.1869 -4.84775,-8.56036c4.16631,4.04617 8.21206,5.62554 13.52856,7.59429c-6.69155,-4.78379 -14.38257,-7.06198 -14.27168,-16.86167z" fill="#a1bec5"/><path d="M30.67734,42.81866l0.8918,1.38445l-0.18721,0.0678c-0.52661,-0.12726 -1.05835,-0.50991 -1.52593,-0.80425c0.60234,-0.29025 0.50156,-0.13956 0.82134,-0.648z" fill="#d0dee3"/><path d="M31.6645,77.09555c3.17065,-0.56966 5.00537,-1.32602 7.93125,-2.67665c-2.98096,2.45055 -5.88237,3.85682 -9.04951,5.7812c2.97246,0.90354 4.54819,0.58064 7.32832,-0.71698c0.30762,0.08904 0.99141,0.26726 1.25405,0.38104c-0.84375,0.87733 -2.58677,1.868 -2.77119,2.60987c0.24155,0.14542 0.32783,0.2078 0.59355,0.2961c-0.44194,0.38778 -0.97983,1.15454 -1.36655,1.62784c-2.20195,2.69481 -4.75605,5.6043 -8.58003,5.02776c1.77729,-1.42238 4.3248,-3.68783 5.4501,-5.61397c-3.33179,2.61515 -6.14326,4.79814 -10.56841,3.56189c2.3748,-1.82597 5.45566,-3.35907 8.27974,-5.5756c-4.27148,1.93346 -7.56797,3.7218 -12.24185,1.93346c3.45894,-1.28531 6.83027,-2.93395 10.18799,-4.46909c0.87715,-0.40096 3.43608,-1.43732 4.02935,-1.8434l-0.05962,-0.20663z" fill="#d0dee3"/><path d="M45.01758,77.45623c1.48403,-1.97696 2.49565,-4.02171 4.97065,-4.76519c1.60269,-0.4815 3.16377,-1.04193 4.7937,-1.45401c-3.20449,3.36317 -5.42578,4.78204 -9.76436,6.21921z" fill="#94b7be"/><path d="M42.05405,76.5338c-0.86909,1.19891 -1.84849,2.31392 -2.92544,3.33036c-0.26265,-0.11378 -0.94644,-0.292 -1.25405,-0.38104c1.77451,-0.99097 2.62822,-1.62696 4.17949,-2.94932z" fill="#a1bec5"/><path d="M222.65479,52.41978c3.57275,-0.11876 7.24512,-0.02577 10.8252,-0.03222c4.83252,-0.00879 10.22607,-0.3869 14.57227,2.07844c2.46094,1.38665 4.2583,3.70569 4.98779,6.43331c1.54102,5.69495 -0.78369,11.75512 -6.37354,14.10506c-1.17187,0.49292 -2.2749,0.77555 -3.49805,1.09465c5.68652,1.85995 6.104,4.84208 8.09766,9.96796c0.26221,0.67407 0.5376,1.36468 1.11475,1.8188c1.03857,0.81919 2.44922,0.05975 3.1626,0.41399c0.43359,1.69418 -2.08887,3.13692 -3.46436,3.49848c-2.30273,0.60539 -4.3667,0.51079 -6.47754,-0.62486c-5.09033,-3.92418 -2.72021,-8.96205 -6.35596,-13.28001c-1.18652,-1.40891 -3.21826,-1.32734 -4.89258,-1.29805c-0.01465,3.15288 -0.34131,9.25405 0.85547,12.17409c0.28564,0.69545 2.05957,1.8371 2.64697,2.49009l-0.18457,0.17426c-1.42383,0.31997 -12.854,0.18715 -14.77295,0.03925l-0.08057,-0.24514c0.42334,-0.78405 1.98633,-1.42736 2.36572,-2.15942c0.52881,-1.11017 0.84082,-2.36224 0.9375,-3.58459c0.12598,-2.36634 0.20361,-4.66005 0.13623,-7.0488c-0.21094,-7.38649 0.49072,-15.02691 -0.5332,-22.34062c-0.20508,-1.46192 -1.86475,-2.32885 -2.9165,-3.08215c0,0 -0.14062,-0.55077 -0.15234,-0.5925z" fill="#44463b"/><path d="M234.35742,54.47684c2.42285,-0.029 5.51221,-0.31997 7.56445,1.23377c3.4292,2.59669 3.61816,8.00374 3.00732,11.87901c-0.28271,1.79698 -0.91113,3.19989 -1.97168,4.65009c-2.58838,2.68807 -5.1709,2.26925 -8.60449,2.25754z" fill="#fafcfc"/><path d="M215.05225,51.75464c5.87695,0.08347 6.71045,6.16722 1.76221,8.6989c-6.13184,-6.90704 -13.41504,5.55261 -16.0459,10.00647c9.45996,-2.07492 12.5625,7.56515 15.20215,14.38433c1.99951,5.16337 5.90186,13.79842 11.65723,15.31994c1.08398,0.28893 2.22949,0.2592 3.29736,-0.08567c3.38379,-1.11954 3.76172,-4.53045 5.35107,-5.41393c0.81592,-0.46188 1.78418,-0.57683 2.68652,-0.3188c1.6377,0.45953 2.98096,2.00244 2.3877,3.73806c-0.47754,1.39734 -2.16064,2.67109 -3.4834,3.26842c-4.68896,2.11666 -10.61426,2.11842 -15.45117,0.47886c-7.58203,-2.68544 -11.17676,-8.32489 -14.47266,-15.09955c-1.24219,-2.90774 -4.37549,-11.92412 -6.86572,-13.37476c-0.42041,-0.245 -0.91553,-0.38675 -1.39746,-0.25525c-1.06787,0.29171 -2.02148,2.39329 -2.56787,3.3125c-0.02783,3.82372 -0.40137,8.92427 0.97412,12.52936c0.26367,0.69369 2.20166,1.66723 2.53711,2.35873c-0.7749,0.39334 -14.64111,0.33227 -15.02637,0.08669c-0.14062,-1.21824 1.79443,-0.78287 2.41699,-2.56345c1.69775,-4.85921 0.81592,-10.73106 0.99756,-15.90248c0.15381,-4.35677 -0.08643,-8.86613 -0.06738,-13.22979c-0.02637,-2.95796 -0.36621,-5.1231 -3.12305,-6.45146c-0.17725,-0.47945 -0.16699,-0.28219 -0.07178,-0.75461c0.12158,-0.02841 0.24316,-0.05155 0.36621,-0.06941c1.37842,-0.1873 4.48535,-0.01186 5.99121,-0.03061c1.35059,-0.01684 7.7373,-0.1501 8.32617,0.29508c-0.2373,0.65474 -1.31396,1.14473 -1.82666,1.65889c-2.18701,2.1953 -1.50732,14.04048 -1.50146,17.61804c2.79785,-4.8267 6.19629,-10.50803 9.53174,-14.96101c2.04346,-2.72703 4.92041,-4.8841 8.41553,-5.24347z" fill="#44463b"/><path d="M139.10918,35.92494c2.24399,-0.13136 5.46152,0.0804 6.66929,2.364c0.74106,1.40203 0.07295,2.91872 -0.39346,4.30361c-1.84541,-0.66792 -3.9186,-0.66557 -5.79009,-0.10558c-5.71055,1.70824 -9.60806,7.81908 -12.30132,12.79383c-1.18799,2.19442 -2.24385,4.48315 -3.21929,6.77891c-1.78623,4.20389 -8.93525,22.22918 -8.60801,25.68944c0.25986,2.74533 2.23154,2.37981 2.58208,3.55852c-0.2165,0.39173 -0.53687,0.34209 -0.95728,0.37621c-2.45581,0.19945 -4.98164,0.35981 -7.30752,-0.58767c-1.36421,-0.55062 -2.54209,-1.48067 -3.39375,-2.67987c-1.14038,-1.63399 -3.51592,-7.77588 -4.37988,-9.87804c-2.32222,-5.67591 -4.68398,-11.33572 -7.08486,-16.97897c-1.00737,-2.36576 -2.27168,-5.0676 -4.18066,-6.86604c-0.704,-0.66323 -2.58428,-1.09289 -2.74321,-2.10743l0.16597,-0.16226c1.63594,-0.05169 15.59678,-0.10456 16.01367,0.10397c-0.13169,0.76618 -1.85024,1.88089 -1.88423,2.52626c-0.19292,3.67802 3.03501,10.23521 4.33433,13.39395c2.1665,5.33661 4.38237,10.65301 6.64731,15.94861c0.88828,-2.35097 1.77583,-5.19983 2.59482,-7.60674l4.64575,-13.69034c3.11001,-9.33782 7.15063,-25.48105 18.59033,-27.17435z" fill="#44463b"/><path d="M267.29736,52.18049c8.87256,-0.78287 9.96094,3.98613 12.28418,11.13978l3.89209,11.95736c1.49854,4.57834 2.78613,9.5998 5.46973,13.61829c0.78809,1.17988 2.43018,1.37215 2.56641,2.4772l-0.22119,0.16519c-2.25586,-0.00439 -14.29102,0.3024 -15.42334,-0.21805c-0.23291,-0.10676 -0.21533,-0.14717 -0.29883,-0.37284c0.38965,-0.27868 1.65234,-1.1686 1.83984,-1.55257c1.32275,-2.70096 -0.57422,-7.59561 -1.40625,-10.2623l-0.16699,-0.19579c-0.63721,-0.12682 -3.08496,-0.07176 -3.85107,-0.06971l-7.60693,0.00718c-0.5332,2.1335 -1.18213,4.43058 -1.28174,6.62851c-0.06445,1.43337 0.11719,3.45015 1.1748,4.53484c0.32959,0.33872 0.85693,0.45397 1.31104,0.94645l-0.14062,0.28087c-0.85986,0.44913 -9.59766,0.36713 -10.50439,0.17558l-0.11426,-0.28219c0.19775,-0.6953 1.32568,-0.98247 1.87061,-1.65376c4.27588,-5.26705 5.44336,-13.48108 7.67725,-19.80924c1.31396,-3.71902 2.24414,-7.49061 3.15088,-11.2149c0.80566,-3.31265 -0.3501,-4.41374 -3.22119,-5.55085c1.04883,-0.45206 1.88818,-0.57449 3,-0.74905z" fill="#44463b"/><path d="M269.82275,59.5374c0.67383,0.95011 4.80908,15.08197 5.43457,17.09349l-4.51758,0.00923l-5.71582,-0.00908c1.39893,-5.54265 3.26074,-11.51525 4.79883,-17.09363z" fill="#fafcfc"/><path d="M177.57715,79.38223c0.02637,-5.34144 0.09521,-10.70836 -0.00732,-16.05039c-0.0542,-2.85062 -0.479,-7.01497 -2.54736,-9.18391c-0.52002,-0.54535 -1.18945,-0.69384 -1.73584,-1.1708l0.09082,-0.23431c0.86133,-0.46993 10.0708,-0.54271 10.69043,-0.22318l0.06738,0.28717c-0.35596,0.79239 -1.39014,1.11134 -1.93213,1.64497c-1.25684,1.37464 -1.81494,4.42838 -1.91309,6.21628c-0.55078,10.05977 -0.0835,20.21679 -0.2124,30.29618c-0.00586,0.42058 0.02051,0.84965 -0.27246,1.13214c-0.79102,0.1359 -1.84131,-0.23958 -2.58984,-0.51372c-3.05566,-1.65903 -7.04443,-8.68337 -9.11133,-11.81399l-12.26367,-18.59671l-0.02344,11.00534c0.00293,4.73561 -0.271,10.21178 1.06641,14.72715c0.29736,1.00122 0.72363,1.92468 1.3916,2.73977c0.50977,0.62355 1.70801,1.05086 1.88525,1.63223l-0.24316,0.18744c-1.12354,0.13663 -9.59766,0.22391 -10.52051,-0.05038l-0.06445,-0.27751c0.32813,-0.74714 1.60254,-1.02362 2.20459,-2.04666c0.89941,-1.52723 1.45166,-3.61226 1.61572,-5.36092c0.43506,-3.97632 0.18018,-8.01633 0.25049,-12.01345c-0.02783,-2.64985 0.03955,-4.85218 -0.00146,-7.54465c-0.05566,-3.48266 0.1626,-9.05402 -3.46729,-10.98045c-0.37646,-0.19975 -0.32227,-0.4342 -0.39404,-0.80206c3.37939,-0.01025 6.75879,0.00176 10.13818,0.03588c0.50537,0.54989 1.65674,2.35067 2.10352,3.02401l4.00049,6.06837z" fill="#44463b"/><path d="M66.87114,64.52929c0.90483,3.62164 2.61167,5.46884 2.85659,9.04157c0.23555,3.43624 -0.5543,6.14174 -1.36172,9.39508c-1.93242,7.78584 -4.00854,13.34386 -0.60952,21.04169c-7.59126,-3.85975 -5.14307,-13.52325 -3.56675,-20.16348c-2.34346,4.66942 -2.58896,7.74527 -3.17183,12.70362c-0.71851,-1.28414 -1.30752,-2.36283 -1.71079,-3.78843c-0.12993,0.48823 -0.24507,1.95968 -0.27876,2.5532c-0.22544,3.97881 -0.01641,6.35789 1.57749,9.94921c-7.08691,-3.37576 -3.64424,-12.48645 -3.62549,-18.18301c-1.35088,4.25543 -2.03584,7.21677 -2.13354,11.66858c-3.30439,-5.40046 -2.32954,-9.88346 -1.39863,-15.51778c-0.57583,1.30582 -1.08794,2.53299 -1.45854,3.91906c-0.28784,1.07649 0.14736,2.47852 -0.44033,3.32773c-1.85215,-0.43185 -1.16177,-7.67103 -1.54058,-9.20207c-0.47358,-1.91384 -0.69097,-2.2426 -1.76777,-3.94337c2.1501,-1.10988 4.56035,-1.82597 6.46655,-3.61724c-0.19951,-0.30445 -0.23716,-0.35424 -0.31553,-0.7079c0.37485,-0.41999 1.13145,-0.52426 1.73027,-0.683c0.38511,-0.43303 1.52637,-1.57732 1.4228,-2.1089c0.21313,-0.14659 1.17012,-0.57317 1.45811,-0.70848c0.14619,0.44416 0.28345,0.99858 0.58975,1.33466c3.75894,-2.09162 4.61323,-3.10616 7.27822,-6.31073z" fill="#468292"/><path d="M54.70752,73.71364c3.525,4.92643 0.0082,8.01619 2.53491,13.38033c0.68394,-3.5285 1.08164,-4.99071 2.99546,-8.20041c-1.3314,6.37649 -1.74785,7.30844 -0.93076,13.86578c-0.12993,0.48823 -0.24507,1.95968 -0.27876,2.5532c-0.22544,3.97881 -0.01641,6.35789 1.57749,9.94921c-7.08691,-3.37576 -3.64424,-12.48645 -3.62549,-18.18301c-1.35088,4.25543 -2.03584,7.21677 -2.13354,11.66858c-3.30439,-5.40046 -2.32954,-9.88346 -1.39863,-15.51778c-0.57583,1.30582 -1.08794,2.53299 -1.45854,3.91906c-0.28784,1.07649 0.14736,2.47852 -0.44033,3.32773c-1.85215,-0.43185 -1.16177,-7.67103 -1.54058,-9.20207c-0.47358,-1.91384 -0.69097,-2.2426 -1.76777,-3.94337c2.1501,-1.10988 4.56035,-1.82597 6.46655,-3.61724z" fill="#94b7be"/><path d="M57.54507,70.21384c0.21313,-0.14659 1.17012,-0.57317 1.45811,-0.70848c0.14619,0.44416 0.28345,0.99858 0.58975,1.33466c-0.82134,0.50376 -2.53066,1.30743 -3.47065,1.48272c0.38511,-0.43303 1.52637,-1.57732 1.4228,-2.1089z" fill="#a1bec5"/><path d="M143.34609,62.79235c0.14224,-0.00293 0.28491,-0.00586 0.42715,-0.00044c0.40225,0.01523 0.52793,0.15171 0.56704,0.53846c0.37954,3.75827 -0.87949,23.0103 0.7667,24.57839c0.7853,0.74817 1.79634,-0.14307 2.67231,-0.13414l0.17871,0.21307c0.11719,1.81514 -1.62437,2.99501 -3.12642,3.62237c-1.82109,0.76047 -3.76479,0.70175 -5.58765,-0.05374c-3.62534,-2.11886 -3.08174,-6.39245 -3.08145,-9.95214c-0.01289,-3.24601 0.14824,-6.8369 -0.03354,-10.05421c-0.12891,-2.27936 -0.56514,-2.83261 -2.50854,-3.65576c-0.33867,-0.14337 -0.29575,-0.61007 -0.31245,-0.95304c0.61523,-0.36962 3.45146,-1.03358 4.34224,-1.32646c2.19888,-0.72313 3.76787,-1.55389 5.6959,-2.82236z" fill="#44463b"/><path d="M163.95117,22.33081c0.19629,0.00805 0.29736,0.06941 0.48633,0.14132c0.42627,0.64742 0.26953,3.96314 0.27832,4.99994c0.76172,-0.81319 1.3125,-1.48213 2.51807,-1.0844c1.15723,1.09143 0.12451,2.06394 -0.74854,2.87889c1.08105,0.0451 4.23926,0.01787 4.92773,0.58445c0.07178,1.07766 -7.03564,8.30204 -8.47705,8.60532c-1.42236,0.29933 -4.10596,0.1173 -5.78027,0.38075c-0.89062,0.72195 -3.07471,3.03338 -3.95801,3.92711l-9.06724,9.26972c-1.19678,1.17021 -1.98896,2.07961 -3.00762,3.39451c-0.33252,0.43815 -0.86938,0.8785 -1.45708,0.87704c-1.49297,-0.00351 -2.27871,-1.798 -1.23662,-2.88753c0.53145,-0.50244 1.35527,-0.52031 1.86152,-1.06287c4.9355,-5.29004 10.34063,-10.26889 15.2625,-15.55908l0.12158,-3.64946c0.07178,-1.84721 0.19922,-2.82939 1.5835,-4.21223c2.21191,-2.20877 4.39746,-4.48066 6.69287,-6.60347z" fill="#468292"/><path d="M139.16631,48.51302c0.779,-0.05946 2.4731,-0.12286 2.68418,0.72327c-0.15923,0.59836 -0.84097,1.21634 -1.2854,1.69301c-1.92129,-0.05609 -4.15474,0.59924 -4.50483,2.78604c-0.16465,1.04266 0.09624,2.10773 0.72407,2.95635c0.64761,0.87791 1.62612,1.45314 2.70835,1.59211c2.79741,0.35732 3.69141,-2.03714 3.93633,-4.3146c0.51606,-0.55677 1.2145,-1.611 1.97358,-1.43952c0.3189,0.37211 0.34702,0.96402 0.42129,1.46368c-0.01655,1.51772 -0.18472,2.70843 -1.08691,4.01527c-0.91509,1.30904 -2.30713,2.20716 -3.87729,2.50151c-1.63506,0.29552 -3.32065,-0.06707 -4.6897,-1.00839c-1.29653,-0.88714 -2.17676,-2.2631 -2.43853,-3.81186c-0.58301,-3.61212 1.8646,-6.59234 5.43486,-7.15687z" fill="#44463b"/></g></svg></svg>